<svg width="72" height="72" viewBox="0 0 72 72" fill="none" xmlns="http://www.w3.org/2000/svg">
<g clip-path="url(#clip0_3796_31704)">
<mask id="mask0_3796_31704" style="mask-type:luminance" maskUnits="userSpaceOnUse" x="0" y="0" width="72" height="72">
<path d="M72 0H0V72H72V0Z" fill="white"/>
</mask>
<g mask="url(#mask0_3796_31704)">
<mask id="mask1_3796_31704" style="mask-type:luminance" maskUnits="userSpaceOnUse" x="-1" y="-1" width="74" height="74">
<path d="M-0.25 -0.25H72.25V72.25H-0.25V-0.25Z" fill="white"/>
</mask>
<g mask="url(#mask1_3796_31704)">
<path d="M11.1097 61.0912L5.06755 62.5847C3.71905 62.9167 2.77075 64.1275 2.77075 65.5166V66.2082C2.77075 67.8772 4.1236 69.2286 5.7911 69.2286H11.8333C13.5022 69.2286 14.8536 67.8772 14.8536 66.2082V64.0245C14.8536 62.3164 13.4587 61.0027 11.8391 61.0027C11.5998 61.0027 11.3548 61.0303 11.1097 61.0912ZM28.9317 58.8074L22.8895 60.9056C21.6744 61.3275 20.8595 62.473 20.8595 63.7592L20.8958 66.2082C20.8958 67.8772 22.2486 69.2286 23.9161 69.2286H29.9583C31.6272 69.2286 32.9786 67.8772 32.9786 66.2082L32.9438 61.661C32.9438 59.9355 31.5301 58.6378 29.9264 58.6378C29.6001 58.6378 29.2652 58.6929 28.9317 58.8074ZM46.7724 57.891L40.7318 60.8983C39.7052 61.4087 39.057 62.4571 39.057 63.6026L39.0208 66.2082C39.0208 67.8772 40.3736 69.2286 42.0411 69.2286H48.0833C49.7522 69.2286 51.1036 67.8772 51.1036 66.2082L51.1398 60.5967C51.1398 58.8451 49.7029 57.572 48.118 57.572C47.6714 57.572 47.2132 57.6721 46.7724 57.891ZM64.3885 56.2786L58.3478 60.9781C57.6112 61.5508 57.182 62.431 57.182 63.3633L57.1458 66.2082C57.1458 67.8772 58.4986 69.2286 60.1661 69.2286H66.2083C67.8772 69.2286 69.2286 67.8772 69.2286 66.2082L69.2648 58.6639C69.2648 56.8702 67.7931 55.6377 66.23 55.6377C65.6021 55.6363 64.9584 55.8364 64.3885 56.2786Z" fill="url(#paint0_linear_3796_31704)"/>
</g>
</g>
</g>
<defs>
<linearGradient id="paint0_linear_3796_31704" x1="65.6407" y1="48.5063" x2="12.8069" y2="82.5065" gradientUnits="userSpaceOnUse">
<stop stop-color="#70CC0D"/>
<stop offset="0.5" stop-color="#40A10F"/>
<stop offset="1" stop-color="#107711"/>
</linearGradient>
<clipPath id="clip0_3796_31704">
<rect width="72" height="72" fill="white"/>
</clipPath>
</defs>
</svg>
